<svg width="250" height="275" viewBox="0 0 250 275" fill="none" xmlns="http://www.w3.org/2000/svg">
    <g id="Group 1">
    <path id="Polygon 2" d="M125 13L233.253 75.5V200.5L125 263L16.7468 200.5V75.5L125 13Z" fill="url(#paint0_linear_167_34)"/>
    <path id="J" d="M68.5332 159.965C70.9681 169.06 75.623 175.756 82.498 180.053C89.4447 184.35 98.3607 186.498 109.246 186.498C112.755 186.498 116.049 186.176 119.129 185.531C122.208 184.815 124.965 183.777 127.4 182.416C129.907 180.984 132.02 179.193 133.738 177.045C135.529 174.896 136.854 172.354 137.713 169.418C138.357 166.983 138.823 163.832 139.109 159.965C139.396 156.098 139.539 150.941 139.539 144.496V84.4473H88.2988V67.2598H190.779V84.4473H163.924V145.355C163.924 151.801 163.673 157.387 163.172 162.113C162.671 166.768 161.919 170.6 160.916 173.607C159.197 178.907 156.762 183.49 153.611 187.357C150.46 191.153 146.629 194.304 142.117 196.811C137.677 199.317 132.592 201.179 126.863 202.396C121.206 203.614 115.011 204.223 108.279 204.223C99.1126 204.223 91.1276 203.435 84.3242 201.859C77.5208 200.284 71.6842 197.956 66.8145 194.877C61.9447 191.798 57.9342 188.002 54.7832 183.49C51.6322 178.979 49.1615 173.822 47.3711 168.021L68.5332 159.965ZM59.9395 198.529C66.6712 202.826 73.9401 206.013 81.7461 208.09C89.5521 210.167 98.4681 211.205 108.494 211.205C115.584 211.205 122.316 210.525 128.689 209.164C135.135 207.803 140.971 205.655 146.199 202.719C151.427 199.854 155.975 196.166 159.842 191.654C163.709 187.071 166.681 181.592 168.758 175.219C169.689 171.996 170.405 168.057 170.906 163.402C171.408 158.676 171.658 152.66 171.658 145.355V91.9668H198.514V72.6309H202.811V96.0488H175.955V145.678C175.955 153.197 175.704 159.428 175.203 164.369C174.702 169.239 173.878 173.5 172.732 177.152C170.584 183.526 167.505 189.112 163.494 193.91C159.484 198.708 154.757 202.683 149.314 205.834C143.872 208.985 137.82 211.348 131.16 212.924C124.5 214.499 117.446 215.287 109.998 215.287C104.054 215.287 98.6113 214.929 93.6699 214.213C88.8001 213.568 84.3242 212.566 80.2422 211.205C76.1602 209.844 72.4362 208.09 69.0703 205.941C65.776 203.865 62.7324 201.394 59.9395 198.529ZM94.7441 91.9668H135.027V96.0488H94.7441V91.9668ZM82.8203 163.08C83.7513 165.085 84.9329 166.947 86.3652 168.666C87.7975 170.313 89.3372 171.817 90.9844 173.178C92.7031 174.538 94.4577 175.72 96.248 176.723C98.0384 177.654 99.793 178.406 101.512 178.979C95.8542 178.334 91.1276 176.758 87.332 174.252C83.5365 171.674 80.6719 168.451 78.7383 164.584L82.8203 163.08Z" fill="#E4E4E4"/>
    </g>
    <defs>
    <linearGradient id="paint0_linear_167_34" x1="125" y1="13" x2="125" y2="263" gradientUnits="userSpaceOnUse">
    <stop stopColor="#60FFF8"/>
    <stop offset="1" stopColor="#FC038C"/>
    </linearGradient>
    </defs>
</svg>

